<mxfile host="Electron" modified="2025-03-22T12:33:56.356Z" agent="Mozilla/5.0 (Macintosh; Intel Mac OS X 10_15_7) AppleWebKit/537.36 (KHTML, like Gecko) draw.io/21.6.5 Chrome/114.0.5735.243 Electron/25.3.1 Safari/537.36" etag="G1-UbwTPonr0CmXdB8is" version="21.6.5" type="device">
  <diagram name="第 1 页" id="H12MAoUPwgheypKizklX">
    <mxGraphModel dx="1224" dy="761" grid="1" gridSize="10" guides="1" tooltips="1" connect="1" arrows="1" fold="1" page="1" pageScale="1" pageWidth="827" pageHeight="1169" math="0" shadow="0">
      <root>
        <mxCell id="0" />
        <mxCell id="1" parent="0" />
        <mxCell id="6ODSe9h01Lw-vLSDpBg3-4" value="" style="edgeStyle=orthogonalEdgeStyle;rounded=0;orthogonalLoop=1;jettySize=auto;html=1;" parent="1" source="6ODSe9h01Lw-vLSDpBg3-1" target="6ODSe9h01Lw-vLSDpBg3-3" edge="1">
          <mxGeometry relative="1" as="geometry" />
        </mxCell>
        <mxCell id="6ODSe9h01Lw-vLSDpBg3-40" value="" style="edgeStyle=orthogonalEdgeStyle;rounded=0;orthogonalLoop=1;jettySize=auto;html=1;entryX=0;entryY=0.5;entryDx=0;entryDy=0;" parent="1" source="6ODSe9h01Lw-vLSDpBg3-1" target="6ODSe9h01Lw-vLSDpBg3-39" edge="1">
          <mxGeometry relative="1" as="geometry" />
        </mxCell>
        <mxCell id="6ODSe9h01Lw-vLSDpBg3-42" value="学生模型" style="edgeLabel;html=1;align=center;verticalAlign=middle;resizable=0;points=[];" parent="6ODSe9h01Lw-vLSDpBg3-40" vertex="1" connectable="0">
          <mxGeometry x="-0.2084" y="3" relative="1" as="geometry">
            <mxPoint as="offset" />
          </mxGeometry>
        </mxCell>
        <mxCell id="7W-gJNHi4YHUUWPYiZjl-1" style="edgeStyle=orthogonalEdgeStyle;rounded=0;orthogonalLoop=1;jettySize=auto;html=1;" edge="1" parent="1" source="6ODSe9h01Lw-vLSDpBg3-1">
          <mxGeometry relative="1" as="geometry">
            <mxPoint x="380" y="768" as="targetPoint" />
          </mxGeometry>
        </mxCell>
        <mxCell id="6ODSe9h01Lw-vLSDpBg3-1" value="随机初始化模型" style="rounded=1;whiteSpace=wrap;html=1;fillColor=#e1d5e7;strokeColor=#9673a6;" parent="1" vertex="1">
          <mxGeometry x="320" y="60" width="120" height="60" as="geometry" />
        </mxCell>
        <mxCell id="6ODSe9h01Lw-vLSDpBg3-7" value="" style="edgeStyle=orthogonalEdgeStyle;rounded=0;orthogonalLoop=1;jettySize=auto;html=1;" parent="1" source="6ODSe9h01Lw-vLSDpBg3-2" target="6ODSe9h01Lw-vLSDpBg3-3" edge="1">
          <mxGeometry relative="1" as="geometry" />
        </mxCell>
        <mxCell id="6ODSe9h01Lw-vLSDpBg3-2" value="通用知识" style="rounded=1;whiteSpace=wrap;html=1;fillColor=#f5f5f5;strokeColor=#666666;fontColor=#333333;" parent="1" vertex="1">
          <mxGeometry x="120" y="200" width="120" height="60" as="geometry" />
        </mxCell>
        <mxCell id="6ODSe9h01Lw-vLSDpBg3-6" value="" style="edgeStyle=orthogonalEdgeStyle;rounded=0;orthogonalLoop=1;jettySize=auto;html=1;" parent="1" source="6ODSe9h01Lw-vLSDpBg3-3" target="6ODSe9h01Lw-vLSDpBg3-5" edge="1">
          <mxGeometry relative="1" as="geometry" />
        </mxCell>
        <mxCell id="6ODSe9h01Lw-vLSDpBg3-3" value="预训练（Pretrain）" style="rounded=1;whiteSpace=wrap;html=1;fillColor=#fff2cc;strokeColor=#d6b656;" parent="1" vertex="1">
          <mxGeometry x="320" y="200" width="120" height="60" as="geometry" />
        </mxCell>
        <mxCell id="6ODSe9h01Lw-vLSDpBg3-9" value="" style="edgeStyle=orthogonalEdgeStyle;rounded=0;orthogonalLoop=1;jettySize=auto;html=1;" parent="1" source="6ODSe9h01Lw-vLSDpBg3-5" target="6ODSe9h01Lw-vLSDpBg3-8" edge="1">
          <mxGeometry relative="1" as="geometry" />
        </mxCell>
        <mxCell id="6ODSe9h01Lw-vLSDpBg3-5" value="预训练模型" style="rounded=1;whiteSpace=wrap;html=1;fillColor=#d5e8d4;strokeColor=#82b366;" parent="1" vertex="1">
          <mxGeometry x="320" y="340" width="120" height="60" as="geometry" />
        </mxCell>
        <mxCell id="6ODSe9h01Lw-vLSDpBg3-16" value="" style="edgeStyle=orthogonalEdgeStyle;rounded=0;orthogonalLoop=1;jettySize=auto;html=1;" parent="1" source="6ODSe9h01Lw-vLSDpBg3-8" target="6ODSe9h01Lw-vLSDpBg3-15" edge="1">
          <mxGeometry relative="1" as="geometry" />
        </mxCell>
        <mxCell id="6ODSe9h01Lw-vLSDpBg3-8" value="全参微调（Full Parameter SFT）" style="rounded=1;whiteSpace=wrap;html=1;fillColor=#fff2cc;strokeColor=#d6b656;" parent="1" vertex="1">
          <mxGeometry x="320" y="480" width="120" height="60" as="geometry" />
        </mxCell>
        <mxCell id="6ODSe9h01Lw-vLSDpBg3-11" value="" style="edgeStyle=orthogonalEdgeStyle;rounded=0;orthogonalLoop=1;jettySize=auto;html=1;" parent="1" source="6ODSe9h01Lw-vLSDpBg3-10" target="6ODSe9h01Lw-vLSDpBg3-8" edge="1">
          <mxGeometry relative="1" as="geometry" />
        </mxCell>
        <mxCell id="6ODSe9h01Lw-vLSDpBg3-10" value="SFT问答语料" style="rounded=1;whiteSpace=wrap;html=1;fillColor=#f5f5f5;strokeColor=#666666;fontColor=#333333;" parent="1" vertex="1">
          <mxGeometry x="120" y="480" width="120" height="60" as="geometry" />
        </mxCell>
        <mxCell id="6ODSe9h01Lw-vLSDpBg3-12" value="学习问答" style="text;html=1;strokeColor=none;fillColor=none;align=center;verticalAlign=middle;whiteSpace=wrap;rounded=0;" parent="1" vertex="1">
          <mxGeometry x="470" y="495" width="60" height="30" as="geometry" />
        </mxCell>
        <mxCell id="6ODSe9h01Lw-vLSDpBg3-13" value="学习通用知识" style="text;html=1;strokeColor=none;fillColor=none;align=center;verticalAlign=middle;whiteSpace=wrap;rounded=0;" parent="1" vertex="1">
          <mxGeometry x="440" y="215" width="140" height="30" as="geometry" />
        </mxCell>
        <mxCell id="6ODSe9h01Lw-vLSDpBg3-14" value="能根据输出词，预测下个要生成的词" style="text;html=1;strokeColor=none;fillColor=none;align=center;verticalAlign=middle;whiteSpace=wrap;rounded=0;" parent="1" vertex="1">
          <mxGeometry x="180" y="355" width="140" height="30" as="geometry" />
        </mxCell>
        <mxCell id="6ODSe9h01Lw-vLSDpBg3-22" value="" style="edgeStyle=orthogonalEdgeStyle;rounded=0;orthogonalLoop=1;jettySize=auto;html=1;" parent="1" source="6ODSe9h01Lw-vLSDpBg3-15" target="6ODSe9h01Lw-vLSDpBg3-21" edge="1">
          <mxGeometry relative="1" as="geometry" />
        </mxCell>
        <mxCell id="6ODSe9h01Lw-vLSDpBg3-41" style="edgeStyle=orthogonalEdgeStyle;rounded=0;orthogonalLoop=1;jettySize=auto;html=1;entryX=0;entryY=0.5;entryDx=0;entryDy=0;" parent="1" source="6ODSe9h01Lw-vLSDpBg3-15" target="6ODSe9h01Lw-vLSDpBg3-39" edge="1">
          <mxGeometry relative="1" as="geometry" />
        </mxCell>
        <mxCell id="6ODSe9h01Lw-vLSDpBg3-43" value="教师模型" style="edgeLabel;html=1;align=center;verticalAlign=middle;resizable=0;points=[];" parent="6ODSe9h01Lw-vLSDpBg3-41" vertex="1" connectable="0">
          <mxGeometry x="0.0146" y="4" relative="1" as="geometry">
            <mxPoint x="1" as="offset" />
          </mxGeometry>
        </mxCell>
        <mxCell id="6ODSe9h01Lw-vLSDpBg3-15" value="全参数微调模型" style="rounded=1;whiteSpace=wrap;html=1;fillColor=#d5e8d4;strokeColor=#82b366;" parent="1" vertex="1">
          <mxGeometry x="320" y="620" width="120" height="60" as="geometry" />
        </mxCell>
        <mxCell id="6ODSe9h01Lw-vLSDpBg3-19" value="能够根据问题，生成回答" style="text;html=1;strokeColor=none;fillColor=none;align=center;verticalAlign=middle;whiteSpace=wrap;rounded=0;" parent="1" vertex="1">
          <mxGeometry x="200" y="635" width="100" height="30" as="geometry" />
        </mxCell>
        <mxCell id="6ODSe9h01Lw-vLSDpBg3-27" value="" style="edgeStyle=orthogonalEdgeStyle;rounded=0;orthogonalLoop=1;jettySize=auto;html=1;" parent="1" source="6ODSe9h01Lw-vLSDpBg3-21" target="6ODSe9h01Lw-vLSDpBg3-26" edge="1">
          <mxGeometry relative="1" as="geometry" />
        </mxCell>
        <mxCell id="6ODSe9h01Lw-vLSDpBg3-21" value="RLHF（PPO、DPO等）" style="rounded=1;whiteSpace=wrap;html=1;fillColor=#fff2cc;strokeColor=#d6b656;" parent="1" vertex="1">
          <mxGeometry x="320" y="760" width="120" height="60" as="geometry" />
        </mxCell>
        <mxCell id="6ODSe9h01Lw-vLSDpBg3-23" value="学习让回答更符合人类偏好" style="text;html=1;strokeColor=none;fillColor=none;align=center;verticalAlign=middle;whiteSpace=wrap;rounded=0;" parent="1" vertex="1">
          <mxGeometry x="480" y="775" width="100" height="30" as="geometry" />
        </mxCell>
        <mxCell id="6ODSe9h01Lw-vLSDpBg3-25" value="" style="edgeStyle=orthogonalEdgeStyle;rounded=0;orthogonalLoop=1;jettySize=auto;html=1;" parent="1" source="6ODSe9h01Lw-vLSDpBg3-24" target="6ODSe9h01Lw-vLSDpBg3-21" edge="1">
          <mxGeometry relative="1" as="geometry" />
        </mxCell>
        <mxCell id="6ODSe9h01Lw-vLSDpBg3-24" value="RLHF语料" style="rounded=1;whiteSpace=wrap;html=1;fillColor=#f5f5f5;fontColor=#333333;strokeColor=#666666;" parent="1" vertex="1">
          <mxGeometry x="120" y="760" width="120" height="60" as="geometry" />
        </mxCell>
        <mxCell id="6ODSe9h01Lw-vLSDpBg3-31" value="" style="edgeStyle=orthogonalEdgeStyle;rounded=0;orthogonalLoop=1;jettySize=auto;html=1;" parent="1" source="6ODSe9h01Lw-vLSDpBg3-26" target="6ODSe9h01Lw-vLSDpBg3-30" edge="1">
          <mxGeometry relative="1" as="geometry" />
        </mxCell>
        <mxCell id="6ODSe9h01Lw-vLSDpBg3-48" value="" style="edgeStyle=orthogonalEdgeStyle;rounded=0;orthogonalLoop=1;jettySize=auto;html=1;" parent="1" source="6ODSe9h01Lw-vLSDpBg3-26" target="6ODSe9h01Lw-vLSDpBg3-47" edge="1">
          <mxGeometry relative="1" as="geometry" />
        </mxCell>
        <mxCell id="6ODSe9h01Lw-vLSDpBg3-26" value="RLHF模型" style="rounded=1;whiteSpace=wrap;html=1;fillColor=#d5e8d4;strokeColor=#82b366;" parent="1" vertex="1">
          <mxGeometry x="320" y="900" width="120" height="60" as="geometry" />
        </mxCell>
        <mxCell id="6ODSe9h01Lw-vLSDpBg3-28" value="学习领域知识" style="text;html=1;strokeColor=none;fillColor=none;align=center;verticalAlign=middle;whiteSpace=wrap;rounded=0;" parent="1" vertex="1">
          <mxGeometry x="480" y="1050" width="100" height="30" as="geometry" />
        </mxCell>
        <mxCell id="6ODSe9h01Lw-vLSDpBg3-33" value="" style="edgeStyle=orthogonalEdgeStyle;rounded=0;orthogonalLoop=1;jettySize=auto;html=1;" parent="1" source="6ODSe9h01Lw-vLSDpBg3-30" target="6ODSe9h01Lw-vLSDpBg3-32" edge="1">
          <mxGeometry relative="1" as="geometry" />
        </mxCell>
        <mxCell id="6ODSe9h01Lw-vLSDpBg3-30" value="PEFT（Lora等）" style="rounded=1;whiteSpace=wrap;html=1;fillColor=#fff2cc;strokeColor=#d6b656;" parent="1" vertex="1">
          <mxGeometry x="320" y="1040" width="120" height="60" as="geometry" />
        </mxCell>
        <mxCell id="6ODSe9h01Lw-vLSDpBg3-32" value="peft_model" style="rounded=1;whiteSpace=wrap;html=1;fillColor=#d5e8d4;strokeColor=#82b366;" parent="1" vertex="1">
          <mxGeometry x="320" y="1180" width="120" height="60" as="geometry" />
        </mxCell>
        <mxCell id="6ODSe9h01Lw-vLSDpBg3-35" value="" style="edgeStyle=orthogonalEdgeStyle;rounded=0;orthogonalLoop=1;jettySize=auto;html=1;" parent="1" source="6ODSe9h01Lw-vLSDpBg3-34" target="6ODSe9h01Lw-vLSDpBg3-30" edge="1">
          <mxGeometry relative="1" as="geometry" />
        </mxCell>
        <mxCell id="6ODSe9h01Lw-vLSDpBg3-34" value="特定领域知识" style="rounded=1;whiteSpace=wrap;html=1;fillColor=#f5f5f5;fontColor=#333333;strokeColor=#666666;" parent="1" vertex="1">
          <mxGeometry x="120" y="1040" width="120" height="60" as="geometry" />
        </mxCell>
        <mxCell id="6ODSe9h01Lw-vLSDpBg3-37" value="回答能够更符合人类要求" style="text;html=1;strokeColor=none;fillColor=none;align=center;verticalAlign=middle;whiteSpace=wrap;rounded=0;" parent="1" vertex="1">
          <mxGeometry x="200" y="915" width="100" height="30" as="geometry" />
        </mxCell>
        <mxCell id="6ODSe9h01Lw-vLSDpBg3-38" value="更理解某个领域的知识" style="text;html=1;strokeColor=none;fillColor=none;align=center;verticalAlign=middle;whiteSpace=wrap;rounded=0;" parent="1" vertex="1">
          <mxGeometry x="190" y="1195" width="100" height="30" as="geometry" />
        </mxCell>
        <mxCell id="6ODSe9h01Lw-vLSDpBg3-45" value="" style="edgeStyle=orthogonalEdgeStyle;rounded=0;orthogonalLoop=1;jettySize=auto;html=1;" parent="1" source="6ODSe9h01Lw-vLSDpBg3-39" target="6ODSe9h01Lw-vLSDpBg3-44" edge="1">
          <mxGeometry relative="1" as="geometry" />
        </mxCell>
        <mxCell id="6ODSe9h01Lw-vLSDpBg3-39" value="知识蒸馏（Distill）" style="rounded=1;whiteSpace=wrap;html=1;fillColor=#fff2cc;strokeColor=#d6b656;" parent="1" vertex="1">
          <mxGeometry x="707" y="340" width="120" height="60" as="geometry" />
        </mxCell>
        <mxCell id="6ODSe9h01Lw-vLSDpBg3-44" value="学生模型" style="rounded=1;whiteSpace=wrap;html=1;fillColor=#d5e8d4;strokeColor=#82b366;" parent="1" vertex="1">
          <mxGeometry x="907" y="340" width="120" height="60" as="geometry" />
        </mxCell>
        <mxCell id="6ODSe9h01Lw-vLSDpBg3-46" value="低成本训练，学生模型通常更小" style="text;html=1;strokeColor=none;fillColor=none;align=center;verticalAlign=middle;whiteSpace=wrap;rounded=0;" parent="1" vertex="1">
          <mxGeometry x="720" y="410" width="100" height="30" as="geometry" />
        </mxCell>
        <mxCell id="6ODSe9h01Lw-vLSDpBg3-50" value="" style="edgeStyle=orthogonalEdgeStyle;rounded=0;orthogonalLoop=1;jettySize=auto;html=1;" parent="1" source="6ODSe9h01Lw-vLSDpBg3-47" target="6ODSe9h01Lw-vLSDpBg3-49" edge="1">
          <mxGeometry relative="1" as="geometry" />
        </mxCell>
        <mxCell id="6ODSe9h01Lw-vLSDpBg3-47" value="Distill Reason（SFT）" style="rounded=1;whiteSpace=wrap;html=1;fillColor=#fff2cc;strokeColor=#d6b656;" parent="1" vertex="1">
          <mxGeometry x="710" y="900" width="120" height="60" as="geometry" />
        </mxCell>
        <mxCell id="6ODSe9h01Lw-vLSDpBg3-49" value="蒸馏推理模型" style="rounded=1;whiteSpace=wrap;html=1;fillColor=#d5e8d4;strokeColor=#82b366;" parent="1" vertex="1">
          <mxGeometry x="910" y="900" width="120" height="60" as="geometry" />
        </mxCell>
        <mxCell id="6ODSe9h01Lw-vLSDpBg3-51" value="具有推理能力的模型" style="text;html=1;strokeColor=none;fillColor=none;align=center;verticalAlign=middle;whiteSpace=wrap;rounded=0;" parent="1" vertex="1">
          <mxGeometry x="923.5" y="970" width="93" height="30" as="geometry" />
        </mxCell>
        <mxCell id="6ODSe9h01Lw-vLSDpBg3-52" value="学习推理过程" style="text;html=1;strokeColor=none;fillColor=none;align=center;verticalAlign=middle;whiteSpace=wrap;rounded=0;" parent="1" vertex="1">
          <mxGeometry x="720" y="970" width="100" height="30" as="geometry" />
        </mxCell>
        <mxCell id="6ODSe9h01Lw-vLSDpBg3-54" value="" style="edgeStyle=orthogonalEdgeStyle;rounded=0;orthogonalLoop=1;jettySize=auto;html=1;" parent="1" source="6ODSe9h01Lw-vLSDpBg3-53" target="6ODSe9h01Lw-vLSDpBg3-47" edge="1">
          <mxGeometry relative="1" as="geometry" />
        </mxCell>
        <mxCell id="6ODSe9h01Lw-vLSDpBg3-53" value="思考推理数据集" style="rounded=1;whiteSpace=wrap;html=1;fillColor=#f5f5f5;fontColor=#333333;strokeColor=#666666;" parent="1" vertex="1">
          <mxGeometry x="710" y="760" width="120" height="60" as="geometry" />
        </mxCell>
        <mxCell id="6ODSe9h01Lw-vLSDpBg3-56" value="" style="edgeStyle=orthogonalEdgeStyle;rounded=0;orthogonalLoop=1;jettySize=auto;html=1;" parent="1" source="6ODSe9h01Lw-vLSDpBg3-55" target="6ODSe9h01Lw-vLSDpBg3-39" edge="1">
          <mxGeometry relative="1" as="geometry" />
        </mxCell>
        <mxCell id="6ODSe9h01Lw-vLSDpBg3-55" value="SFT问答语料" style="rounded=1;whiteSpace=wrap;html=1;fillColor=#f5f5f5;fontColor=#333333;strokeColor=#666666;" parent="1" vertex="1">
          <mxGeometry x="707" y="200" width="120" height="60" as="geometry" />
        </mxCell>
      </root>
    </mxGraphModel>
  </diagram>
</mxfile>
